<?xml version="1.0"?>
<svg version="1.1" xmlns="http://www.w3.org/2000/svg" width="400" height="200" style="border: dashed 2px #aaa"><path fill="#000000" d="M30,89.5l0,17.58c1.74-1.44,5.64-4.08,10.08-4.08c6.12,0,9.42,4.08,9.42,10.8l0,15.9l4.2,1.5l0,4.8l-16.32,0l0-4.8l3.12-1.44l0-14.52c0-3-1.2-4.8-3.96-4.8c-3.36,0-6.54,3.18-6.54,3.18l0,16.08l3.18,1.5l0,4.8l-16.98,0l0-4.8l4.8-1.5l0-33.72l-4.8-1.2l0-4.8z M65.1906,93.7c0-3.42,2.46-5.4,5.16-5.4c3.12,0,5.04,1.62,5.04,5.4c0,3.54-2.58,5.46-5.04,5.46c-3.24,0-5.16-1.92-5.16-5.46z M75.2706,129.7l4.2,1.5l0,4.8l-18,0l0-4.8l4.8-1.5l0-19.5l-4.8-1.5l0-4.8l13.8-0.3l0,26.1z M100.2612,103.6l0.42,4.14s5.7-4.62,11.04-4.62c5.82,0,9.12,4.14,9.12,10.68l0,15.9l4.2,1.5l0,4.8l-16.5,0l0-4.8l3.3-1.5l0-14.28c0-2.76-1.56-4.8-4.08-4.8c-3.72,0-6.42,3.42-6.42,3.42l0,15.66l3.3,1.5l0,4.8l-17.1,0l0-4.8l4.8-1.5l0-19.5l-4.8-1.5l0-4.8z M155.0118,136l-0.54-3.18c-0.84,0.84-3.9,3.78-9.06,3.78c-8.4,0-12.3-6.12-12.3-16.02c0-11.28,5.4-17.58,16.38-17.58c1.44,0,3.18,0.3,4.5,0.6l0-7.62l-4.8-1.2l0-4.8l13.8-0.48l0,40.08l4.8,1.2l0,4.8z M153.9918,125.98l0-14.88c-1.14-0.54-2.94-0.9-4.68-0.9c-5.1,0-6.9,3.9-6.9,9.9c0,6.06,1.68,9.3,5.76,9.3c3.84,0,5.82-3.42,5.82-3.42z M180.8424,125.5l0.48,3.9s2.1,0.6,5.04,0.6c3.3,0,4.92-1.02,4.92-2.94c0-4.92-16.02-3.12-16.02-13.8c0-7.5,6-10.26,12.36-10.26c5.4,0,11.16,1.8,11.16,1.8l-0.24,9l-5.1,0l-0.9-3.6s-1.74-0.6-4.14-0.6c-2.58,0-4.14,1.08-4.14,3.06c0,4.86,16.02,2.76,16.02,13.14c0,6.9-5.58,10.8-13.8,10.8c-5.7,0-11.04-1.32-11.04-1.32l0-9.78l5.4,0z M212.373,93.7c0-3.42,2.46-5.4,5.16-5.4c3.12,0,5.04,1.62,5.04,5.4c0,3.54-2.58,5.46-5.04,5.46c-3.24,0-5.16-1.92-5.16-5.46z M222.453,129.7l4.2,1.5l0,4.8l-18,0l0-4.8l4.8-1.5l0-19.5l-4.8-1.5l0-4.8l13.8-0.3l0,26.1z M246.4236,130.6l8.88,0c7.62,0,12,3.3,12,9.3c0,6.6-5.28,11.4-16.8,11.4c-9.42,0-15.48-2.1-15.48-8.7c0-5.16,6.3-7.2,6.3-7.2s-3.6-0.54-3.6-3.96c0-1.74,2.4-5.64,3.12-6.78c-1.44-0.96-4.62-3.54-4.62-9.36c0-8.22,6.18-12.3,14.4-12.3c3.48,0,5.94,0.9,7.08,1.44l10.32-0.24l0,4.8l-4.92,0.84c0.12,0.54,1.02,2.16,1.02,4.74c0,8.7-6.12,12.3-14.4,12.3c-1.62,0-2.82-0.3-3.06-0.3z M250.3236,109.18c-3.6,0-5.1,1.92-5.1,5.7c0,3.6,1.38,6,4.8,6c3.78,0,5.1-1.98,5.1-6c0-3.78-1.5-5.7-4.8-5.7z M252.9036,137.2l-6.3,0s-2.88,1.32-2.88,3.9c0,3,2.58,3.6,7.5,3.6c5.4,0,7.68-1.2,7.68-4.08c0-2.7-1.98-3.42-6-3.42z M288.3942,89.5l0,17.58c1.74-1.44,5.64-4.08,10.08-4.08c6.12,0,9.42,4.08,9.42,10.8l0,15.9l4.2,1.5l0,4.8l-16.32,0l0-4.8l3.12-1.44l0-14.52c0-3-1.2-4.8-3.96-4.8c-3.36,0-6.54,3.18-6.54,3.18l0,16.08l3.18,1.5l0,4.8l-16.98,0l0-4.8l4.8-1.5l0-33.72l-4.8-1.2l0-4.8z M341.1648,128.32l2.16,4.56c-2.94,2.16-6.3,3.72-10.2,3.72c-6.9,0-8.88-4.8-8.88-11.7l0-13.8l-5.58,0l0-5.82l5.58-0.78l0-8.28l9-1.62l0,9.9l8.4,0l0,6.6l-8.4,0l0,13.2c0,3.84,0.66,5.4,3.18,5.4c1.62,0,3.96-0.96,4.74-1.38z"/><path fill="#" d=""/></svg>
