<?xml version="1.0"?>
<svg version="1.1" xmlns="http://www.w3.org/2000/svg"
    width="400" height="200"
    style="border: dashed 2px #aaa">
<path fill="#000000" stroke="black" stroke-width="1" d="M27.6,86.2l0,18.12c1.86-1.56,6.06-4.32,10.5-4.32c6.6,0,9.6,4.2,9.6,10.8l0,16.8l4.5,1.5l0,3.3l-14.4,0l0-3.3l3.9-1.44l0-16.26c0-4.2-1.32-6.3-5.22-6.3c-5.1,0-8.88,4.8-8.88,4.8l0,17.7l3.9,1.5l0,3.3l-15,0l0-3.3l5.1-1.5l0-36.6l-5.1-1.2l0-3.3z M64.416,90.7c0-2.7,1.8-4.2,3.9-4.2c2.4,0,3.9,1.2,3.9,4.2c0,2.7-2.1,4.2-3.9,4.2c-2.4,0-3.9-1.5-3.9-4.2z M76.116,129.1l0,3.3l-15.6,0l0-3.3l5.1-1.5l0-22.2l-5.1-1.2l0-3.3l11.1-0.3l0,27z M94.632,100.6l0.54,4.26c1.44-1.26,6.18-4.86,11.16-4.86c6.6,0,9.6,4.2,9.6,10.8l0,16.8l4.5,1.5l0,3.3l-14.4,0l0-3.3l3.9-1.5l0-16.2c0-4.2-1.5-6.3-5.4-6.3c-5.1,0-8.7,4.8-8.7,4.8l0,17.7l3.9,1.5l0,3.3l-15,0l0-3.3l5.1-1.5l0-22.2l-5.1-1.2l0-3.3z M161.748,128.8l0,3.3l-10.2,0.3l-0.48-3.42c-1.74,1.74-4.86,4.02-9.42,4.02c-8.7,0-12.6-6.3-12.6-15.6c0-10.2,5.1-17.4,15.9-17.4c2.22,0,4.14,0.42,5.7,0.96l0-9.96l-5.1-1.2l0-3.3l11.1-0.3l0,41.4z M150.648,123.7l0-17.7s-2.1-1.2-6.3-1.2c-6.96,0-9,5.4-9,12s2.1,11.4,7.5,11.4c5.1,0,7.8-4.5,7.8-4.5z M174.324,122.8l0.66,5.16s1.8,0.54,5.04,0.54c3.6,0,6.78-1.02,6.78-4.74c0-6.48-16.74-3.48-16.74-14.4c0-6.24,4.8-9.36,10.98-9.36c4.74,0,10.26,1.8,10.26,1.8l-0.18,8.1l-3.9,0l-0.96-4.68s-1.86-0.72-4.86-0.72c-3.06,0-5.34,0.96-5.34,4.02c0,6.42,16.74,3.96,16.74,14.22c0,6.9-6,10.26-13.2,10.26c-5.52,0-9.48-1.32-9.48-1.32l0-8.88l4.2,0z M205.92,90.7c0-2.7,1.8-4.2,3.9-4.2c2.4,0,3.9,1.2,3.9,4.2c0,2.7-2.1,4.2-3.9,4.2c-2.4,0-3.9-1.5-3.9-4.2z M217.62,129.1l0,3.3l-15.6,0l0-3.3l5.1-1.5l0-22.2l-5.1-1.2l0-3.3l11.1-0.3l0,27z M257.436,104.2l-5.82,0.84s1.62,2.16,1.62,6.06c0,8.1-5.4,11.7-13.2,11.7c-2.7,0-4.5-0.54-4.5-0.54l-0.3,5.64l9.3,0c7.8,0,12,3,12,8.7c0,6.6-5.1,10.8-15.6,10.8c-8.4,0-14.4-2.1-14.4-8.7c0-5.4,6.3-7.5,6.3-7.5s-3.6-0.3-3.6-3.42c0-1.98,3.12-6.78,3.12-6.78s-4.62-2.1-4.62-9.3c0-7.8,5.4-11.7,13.2-11.7c3.9,0,6,1.14,6,1.14l10.5-0.24l0,3.3z M240.636,104.2c-4.8,0-6.9,2.4-6.9,7.2c0,4.2,2.1,7.2,6.6,7.2c4.8,0,6.9-2.1,6.9-7.2c0-4.5-2.1-7.2-6.6-7.2z M243.036,132.4l-6.6,0s-3.9,1.8-3.9,5.4c0,4.2,3.6,5.1,9.3,5.1c6,0,9-1.8,9-5.7s-3-4.8-7.8-4.8z M275.652,86.2l0,18.12c1.86-1.56,6.06-4.32,10.5-4.32c6.6,0,9.6,4.2,9.6,10.8l0,16.8l4.5,1.5l0,3.3l-14.4,0l0-3.3l3.9-1.44l0-16.26c0-4.2-1.32-6.3-5.22-6.3c-5.1,0-8.88,4.8-8.88,4.8l0,17.7l3.9,1.5l0,3.3l-15,0l0-3.3l5.1-1.5l0-36.6l-5.1-1.2l0-3.3z M328.068,100.9l0,4.5l-8.7,0l0,19.26c0,2.76,1.32,3.66,3,3.66c1.44,0,3.12-0.66,4.68-1.5l1.62,3.18c-2.7,1.98-5.4,3-8.4,3c-3.6,0-6.9-1.98-6.9-8.7l0-18.9l-6,0l0-3.9l6-0.6l0-7.56l6-1.2l0,8.76l8.7,0z"/><path fill="#" d=""/></svg>
