<?xml version="1.0" encoding="UTF-8" standalone="no"?>
<!DOCTYPE svg PUBLIC "-//W3C//DTD SVG 20010904//EN"
              "http://www.w3.org/TR/2001/REC-SVG-20010904/DTD/svg10.dtd">

<svg xmlns="http://www.w3.org/2000/svg"
     width="16.6667in" height="11.1111in">
  <path id="Path"
        fill="none" stroke="black" stroke-width="1"
        d="M 503.03,399.98
           C 503.03,399.98 503.03,389.70 503.03,389.70
             503.03,386.65 503.09,383.78 503.20,381.08
             503.20,381.08 502.89,380.84 502.89,380.84
             499.25,381.63 494.99,382.38 490.11,383.11
             490.11,383.11 490.30,384.31 490.30,384.31
             490.30,384.31 494.59,385.48 494.59,385.48
             494.68,387.63 494.72,389.98 494.72,392.53
             494.72,392.53 494.72,418.17 494.72,418.17
             494.72,419.33 494.71,420.53 494.69,421.78
             494.66,422.25 494.44,422.54 494.02,422.66
             494.02,422.66 490.23,423.69 490.23,423.69
             490.23,423.69 490.38,425.09 490.38,425.09
             493.19,425.03 496.05,425.00 498.97,425.00
             501.81,425.00 504.45,425.03 506.88,425.09
             506.88,425.09 506.81,423.69 506.81,423.69
             506.81,423.69 503.77,422.75 503.77,422.75
             503.34,422.63 503.11,422.30 503.09,421.78
             503.05,419.75 503.03,417.51 503.03,415.06
             503.03,415.06 503.03,402.17 503.03,402.17
             504.75,401.43 506.42,401.06 508.05,401.06
             509.90,401.06 511.30,401.59 512.23,402.64
             513.17,403.68 513.64,405.40 513.64,407.80
             513.64,407.80 513.64,420.08 513.64,420.08
             513.64,421.02 513.63,421.63 513.61,421.92
             513.57,422.37 513.32,422.66 512.88,422.80
             512.88,422.80 509.95,423.69 509.95,423.69
             509.95,423.69 510.06,425.09 510.06,425.09
             512.41,425.03 515.04,425.00 517.97,425.00
             520.80,425.00 523.61,425.03 526.41,425.09
             526.41,425.09 526.33,423.69 526.33,423.69
             526.33,423.69 522.78,422.66 522.78,422.66
             522.29,422.52 522.04,422.19 522.02,421.66
             521.97,420.49 521.95,418.68 521.95,416.23
             521.95,416.23 521.95,405.95 521.95,405.95
             521.95,403.10 521.14,400.90 519.52,399.34
             517.90,397.79 515.66,397.02 512.81,397.02
             509.59,397.02 506.33,398.01 503.03,399.98 Z
           M 540.03,384.09
           C 539.22,383.36 538.16,382.98 536.88,382.98
             535.47,382.98 534.32,383.39 533.44,384.19
             532.56,384.99 532.13,386.09 532.13,387.47
             532.13,388.74 532.54,389.77 533.38,390.56
             534.21,391.36 535.27,391.75 536.55,391.75
             537.95,391.75 539.09,391.34 539.95,390.50
             540.83,389.66 541.27,388.56 541.27,387.20
             541.27,385.86 540.85,384.82 540.03,384.09 Z
           M 528.55,400.36
           C 528.55,400.36 532.75,401.44 532.75,401.44
             532.82,403.59 532.86,405.95 532.86,408.50
             532.86,408.50 532.86,417.94 532.86,417.94
             532.86,419.74 532.84,421.02 532.80,421.78
             532.77,422.25 532.52,422.54 532.06,422.66
             532.06,422.66 528.34,423.69 528.34,423.69
             528.34,423.69 528.50,425.09 528.50,425.09
             531.33,425.03 534.20,425.00 537.11,425.00
             539.96,425.00 542.83,425.03 545.72,425.09
             545.72,425.09 545.64,423.69 545.64,423.69
             545.64,423.69 541.97,422.66 541.97,422.66
             541.52,422.52 541.27,422.19 541.23,421.66
             541.20,420.74 541.19,419.12 541.19,416.80
             541.19,416.80 541.19,405.75 541.19,405.75
             541.19,402.71 541.24,399.84 541.36,397.14
             541.36,397.14 541.03,396.91 541.03,396.91
             537.39,397.69 533.18,398.44 528.38,399.16
             528.38,399.16 528.55,400.36 528.55,400.36 Z
           M 548.55,400.36
           C 548.55,400.36 552.75,401.44 552.75,401.44
             552.82,403.62 552.86,405.98 552.86,408.53
             552.86,408.53 552.86,418.17 552.86,418.17
             552.86,419.33 552.85,420.53 552.83,421.78
             552.80,422.25 552.58,422.54 552.16,422.66
             552.16,422.66 548.38,423.69 548.38,423.69
             548.38,423.69 548.53,425.09 548.53,425.09
             551.34,425.03 554.20,425.00 557.11,425.00
             559.96,425.00 562.60,425.03 565.02,425.09
             565.02,425.09 564.95,423.69 564.95,423.69
             564.95,423.69 561.91,422.75 561.91,422.75
             561.48,422.63 561.25,422.30 561.23,421.78
             561.20,419.75 561.19,417.51 561.19,415.06
             561.19,415.06 561.19,402.47 561.19,402.47
             562.91,401.53 564.57,401.06 566.19,401.06
             568.04,401.06 569.44,401.59 570.38,402.64
             571.31,403.68 571.78,405.40 571.78,407.80
             571.78,407.80 571.78,420.08 571.78,420.08
             571.78,421.02 571.77,421.63 571.75,421.92
             571.72,422.37 571.48,422.66 571.03,422.80
             571.03,422.80 568.09,423.69 568.09,423.69
             568.09,423.69 568.22,425.09 568.22,425.09
             570.56,425.03 573.20,425.00 576.13,425.00
             578.96,425.00 581.77,425.03 584.56,425.09
             584.56,425.09 584.47,423.69 584.47,423.69
             584.47,423.69 580.92,422.66 580.92,422.66
             580.43,422.52 580.18,422.19 580.17,421.66
             580.13,420.49 580.11,418.68 580.11,416.23
             580.11,416.23 580.11,405.95 580.11,405.95
             580.11,403.10 579.30,400.90 577.67,399.34
             576.05,397.79 573.82,397.02 570.97,397.02
             567.74,397.02 564.48,398.11 561.19,400.30
             561.19,400.30 561.19,397.17 561.19,397.17
             561.19,397.17 560.73,396.94 560.73,396.94
             557.00,397.75 552.88,398.49 548.38,399.16
             548.38,399.16 548.55,400.36 548.55,400.36 Z
           M 608.06,420.75
           C 606.66,421.47 605.11,421.83 603.42,421.83
             601.16,421.83 599.41,420.87 598.16,418.94
             596.91,417.00 596.28,414.42 596.28,411.20
             596.28,407.50 596.98,404.72 598.39,402.88
             599.80,401.02 601.84,400.09 604.52,400.09
             605.82,400.09 607.00,400.28 608.06,400.66
             608.06,400.66 608.06,420.75 608.06,420.75 Z
           M 603.64,384.31
           C 603.64,384.31 607.94,385.48 607.94,385.48
             608.02,389.33 608.06,393.31 608.06,397.44
             606.53,397.22 605.13,397.11 603.84,397.11
             598.63,397.11 594.56,398.45 591.66,401.11
             588.76,403.78 587.31,407.55 587.31,412.44
             587.31,416.26 588.43,419.45 590.67,422.00
             592.92,424.55 595.98,425.83 599.86,425.83
             602.96,425.83 605.79,424.76 608.34,422.63
             609.16,424.76 610.88,425.83 613.50,425.83
             615.52,425.83 617.95,425.34 620.80,424.36
             620.80,424.36 620.63,423.06 620.63,423.06
             619.57,423.04 618.77,422.98 618.22,422.86
             617.68,422.75 617.27,422.53 617.00,422.20
             616.74,421.88 616.57,421.42 616.48,420.81
             616.41,420.21 616.38,419.41 616.38,418.41
             616.35,415.69 616.34,413.05 616.34,410.50
             616.34,410.50 616.34,394.56 616.34,394.56
             616.34,389.76 616.41,385.27 616.55,381.08
             616.55,381.08 616.20,380.84 616.20,380.84
             612.45,381.63 608.19,382.38 603.42,383.11
             603.42,383.11 603.64,384.31 603.64,384.31 Z
           M 642.92,405.95
           C 642.92,405.95 644.53,405.72 644.53,405.72
             644.94,403.44 645.44,401.02 646.03,398.45
             643.41,397.50 640.47,397.02 637.23,397.02
             633.29,397.02 630.19,397.78 627.94,399.31
             625.70,400.84 624.58,403.02 624.58,405.88
             624.58,407.73 625.15,409.30 626.30,410.58
             627.45,411.85 629.18,412.89 631.47,413.69
             631.47,413.69 635.03,414.92 635.03,414.92
             636.93,415.57 638.19,416.22 638.83,416.88
             639.46,417.52 639.78,418.32 639.78,419.28
             639.78,420.44 639.25,421.34 638.20,421.98
             637.15,422.63 635.77,422.95 634.08,422.95
             632.27,422.95 630.78,422.75 629.59,422.33
             629.59,422.33 627.48,415.95 627.48,415.95
             627.48,415.95 625.98,416.19 625.98,416.19
             625.55,418.65 625.01,421.18 624.34,423.80
             627.51,425.15 630.73,425.83 634.02,425.83
             637.94,425.83 641.11,425.03 643.52,423.44
             645.93,421.84 647.14,419.61 647.14,416.73
             647.14,414.92 646.49,413.34 645.20,411.98
             643.91,410.62 641.87,409.46 639.08,408.50
             639.08,408.50 634.39,406.86 634.39,406.86
             633.20,406.45 632.36,406.01 631.88,405.53
             631.38,405.05 631.14,404.38 631.14,403.50
             631.14,402.34 631.70,401.45 632.83,400.83
             633.95,400.20 635.40,399.89 637.17,399.89
             638.60,399.89 639.93,400.04 641.16,400.33
             641.16,400.33 642.92,405.95 642.92,405.95 Z
           M 662.03,384.09
           C 661.22,383.36 660.16,382.98 658.88,382.98
             657.47,382.98 656.32,383.39 655.44,384.19
             654.56,384.99 654.13,386.09 654.13,387.47
             654.13,388.74 654.54,389.77 655.38,390.56
             656.21,391.36 657.27,391.75 658.55,391.75
             659.95,391.75 661.09,391.34 661.95,390.50
             662.83,389.66 663.27,388.56 663.27,387.20
             663.27,385.86 662.85,384.82 662.03,384.09 Z
           M 650.55,400.36
           C 650.55,400.36 654.75,401.44 654.75,401.44
             654.82,403.59 654.86,405.95 654.86,408.50
             654.86,408.50 654.86,417.94 654.86,417.94
             654.86,419.74 654.84,421.02 654.80,421.78
             654.77,422.25 654.52,422.54 654.06,422.66
             654.06,422.66 650.34,423.69 650.34,423.69
             650.34,423.69 650.50,425.09 650.50,425.09
             653.33,425.03 656.20,425.00 659.11,425.00
             661.96,425.00 664.83,425.03 667.72,425.09
             667.72,425.09 667.64,423.69 667.64,423.69
             667.64,423.69 663.97,422.66 663.97,422.66
             663.52,422.52 663.27,422.19 663.23,421.66
             663.20,420.74 663.19,419.12 663.19,416.80
             663.19,416.80 663.19,405.75 663.19,405.75
             663.19,402.71 663.24,399.84 663.36,397.14
             663.36,397.14 663.03,396.91 663.03,396.91
             659.39,397.69 655.18,398.44 650.38,399.16
             650.38,399.16 650.55,400.36 650.55,400.36 Z
           M 701.25,397.84
           C 698.68,397.90 695.79,397.92 692.58,397.92
             691.66,397.92 690.36,397.79 688.69,397.52
             686.95,397.29 685.57,397.17 684.56,397.17
             680.69,397.17 677.61,398.10 675.34,399.95
             673.07,401.81 671.94,404.26 671.94,407.30
             671.94,410.73 673.42,413.32 676.39,415.06
             673.43,418.61 671.95,421.34 671.95,423.27
             671.95,424.87 672.96,426.08 674.98,426.91
             671.93,429.36 670.41,431.74 670.41,434.05
             670.41,435.83 671.50,437.28 673.70,438.41
             675.90,439.53 678.88,440.09 682.66,440.09
             687.23,440.09 691.32,438.99 694.94,436.80
             698.56,434.60 700.38,431.67 700.38,428.02
             700.38,425.54 699.48,423.69 697.70,422.47
             695.93,421.25 693.39,420.64 690.09,420.64
             688.71,420.64 687.16,420.66 685.47,420.69
             683.77,420.71 682.33,420.72 681.16,420.72
             679.54,420.72 678.47,420.63 677.95,420.45
             677.43,420.28 677.17,419.94 677.17,419.44
             677.17,418.52 677.55,417.37 678.31,415.97
             680.07,416.64 682.10,416.97 684.41,416.97
             688.13,416.97 691.12,416.04 693.39,414.17
             695.66,412.31 696.80,409.80 696.80,406.66
             696.80,404.57 696.08,402.70 694.64,401.03
             694.64,401.03 701.44,399.31 701.44,399.31
             701.44,399.31 701.25,397.84 701.25,397.84 Z
           M 680.14,427.38
           C 681.30,427.38 682.57,427.34 683.94,427.28
             685.31,427.23 686.58,427.21 687.75,427.23
             690.74,427.23 692.67,427.55 693.55,428.17
             694.43,428.80 694.88,429.63 694.88,430.69
             694.88,432.61 693.80,434.15 691.64,435.30
             689.49,436.44 686.96,437.02 684.03,437.02
             681.59,437.02 679.66,436.58 678.25,435.70
             676.83,434.84 676.13,433.64 676.13,432.13
             676.13,430.63 676.59,429.02 677.53,427.28
             678.43,427.34 679.30,427.38 680.14,427.38 Z
           M 681.09,401.27
           C 681.66,400.00 682.73,399.36 684.30,399.36
             685.90,399.36 687.02,400.06 687.64,401.45
             688.27,402.84 688.58,404.73 688.58,407.13
             688.58,409.63 688.29,411.53 687.70,412.83
             687.13,414.13 686.06,414.78 684.50,414.78
             682.96,414.78 681.86,414.09 681.22,412.70
             680.57,411.31 680.25,409.34 680.25,406.81
             680.25,404.39 680.53,402.54 681.09,401.27 Z
           M 715.03,399.98
           C 715.03,399.98 715.03,389.70 715.03,389.70
             715.03,386.65 715.09,383.78 715.20,381.08
             715.20,381.08 714.89,380.84 714.89,380.84
             711.25,381.63 706.99,382.38 702.11,383.11
             702.11,383.11 702.30,384.31 702.30,384.31
             702.30,384.31 706.59,385.48 706.59,385.48
             706.68,387.63 706.72,389.98 706.72,392.53
             706.72,392.53 706.72,418.17 706.72,418.17
             706.72,419.33 706.71,420.53 706.69,421.78
             706.66,422.25 706.44,422.54 706.02,422.66
             706.02,422.66 702.23,423.69 702.23,423.69
             702.23,423.69 702.38,425.09 702.38,425.09
             705.19,425.03 708.05,425.00 710.97,425.00
             713.81,425.00 716.45,425.03 718.88,425.09
             718.88,425.09 718.81,423.69 718.81,423.69
             718.81,423.69 715.77,422.75 715.77,422.75
             715.34,422.63 715.11,422.30 715.09,421.78
             715.05,419.75 715.03,417.51 715.03,415.06
             715.03,415.06 715.03,402.17 715.03,402.17
             716.75,401.43 718.42,401.06 720.05,401.06
             721.90,401.06 723.30,401.59 724.23,402.64
             725.17,403.68 725.64,405.40 725.64,407.80
             725.64,407.80 725.64,420.08 725.64,420.08
             725.64,421.02 725.63,421.63 725.61,421.92
             725.57,422.37 725.32,422.66 724.88,422.80
             724.88,422.80 721.95,423.69 721.95,423.69
             721.95,423.69 722.06,425.09 722.06,425.09
             724.41,425.03 727.04,425.00 729.97,425.00
             732.80,425.00 735.61,425.03 738.41,425.09
             738.41,425.09 738.33,423.69 738.33,423.69
             738.33,423.69 734.78,422.66 734.78,422.66
             734.29,422.52 734.04,422.19 734.02,421.66
             733.97,420.49 733.95,418.68 733.95,416.23
             733.95,416.23 733.95,405.95 733.95,405.95
             733.95,403.10 733.14,400.90 731.52,399.34
             729.90,397.79 727.66,397.02 724.81,397.02
             721.59,397.02 718.33,398.01 715.03,399.98 Z
           M 760.47,401.27
           C 760.47,401.27 760.47,398.08 760.47,398.08
             760.47,398.08 752.27,398.08 752.27,398.08
             752.27,395.42 752.30,392.91 752.36,390.55
             752.36,390.55 751.95,390.34 751.95,390.34
             750.59,390.62 749.07,390.90 747.41,391.19
             747.41,391.19 744.63,398.08 744.63,398.08
             744.63,398.08 739.73,398.52 739.73,398.52
             739.73,398.52 740.00,400.09 740.00,400.09
             740.00,400.09 743.95,401.13 743.95,401.13
             743.84,408.92 743.78,414.84 743.78,418.91
             743.78,421.21 744.52,422.93 746.02,424.08
             747.52,425.22 749.63,425.80 752.36,425.80
             755.05,425.80 757.96,425.03 761.06,423.50
             761.06,423.50 760.83,421.75 760.83,421.75
             759.27,421.91 757.82,421.98 756.48,421.98
             754.77,421.98 753.60,421.61 753.00,420.86
             752.39,420.10 752.09,418.73 752.09,416.77
             752.09,412.53 752.15,407.36 752.27,401.27
             752.27,401.27 760.47,401.27 760.47,401.27 Z" />
</svg>
